<?xml version="1.0" standalone="no"?>
<!DOCTYPE svg PUBLIC "-//W3C//DTD SVG 20010904//EN"
 "http://www.w3.org/TR/2001/REC-SVG-20010904/DTD/svg10.dtd">
<svg version="1.0" xmlns="http://www.w3.org/2000/svg"
 width="1041.000000pt" height="1835.000000pt" viewBox="0 0 1041.000000 1835.000000"
 preserveAspectRatio="xMidYMid meet">

<g transform="translate(0.000000,1835.000000) scale(0.100000,-0.100000)"
fill="#000000" stroke="none">
<path d="M5144 18309 c-51 -39 -68 -62 -105 -132 -66 -128 -92 -358 -70 -637
30 -401 33 -452 23 -462 -10 -10 -54 23 -227 171 -147 126 -301 267 -471 434
-97 93 -160 147 -173 147 -29 0 -48 -34 -71 -126 -23 -94 -57 -322 -66 -451
-6 -86 -5 -96 19 -145 14 -29 43 -69 64 -89 21 -20 164 -127 318 -239 366
-267 557 -409 572 -427 18 -22 5 -333 -15 -355 -8 -10 -20 -18 -27 -18 -15 0
-637 418 -870 585 -99 70 -269 196 -378 279 -279 213 -290 218 -328 166 -52
-71 -92 -668 -54 -814 26 -99 94 -177 234 -270 37 -24 350 -195 696 -381 347
-186 647 -349 669 -362 l38 -25 -7 -186 c-8 -211 -12 -225 -67 -204 -96 36
-1698 887 -2050 1089 -150 86 -197 106 -216 94 -35 -21 -55 -214 -54 -516 1
-348 27 -462 128 -554 29 -26 90 -66 136 -89 83 -40 590 -251 1563 -650 l510
-209 -2 -184 c-2 -198 -5 -224 -28 -232 -15 -6 -229 72 -835 305 -900 347
-1524 605 -2055 852 -66 31 -126 56 -132 56 -7 0 -20 -12 -30 -27 -24 -36 -30
-294 -14 -600 21 -385 46 -487 148 -589 57 -57 170 -119 288 -158 120 -40
1113 -313 2265 -621 179 -48 331 -92 339 -99 11 -9 13 -45 7 -205 -7 -195 -12
-221 -45 -221 -20 0 -564 138 -1101 280 -745 196 -1664 450 -2324 641 -170 49
-320 89 -332 89 -41 0 -47 -31 -40 -179 21 -434 71 -847 118 -980 69 -195 136
-241 431 -295 154 -29 910 -146 2261 -351 528 -80 966 -150 973 -157 11 -8 12
-49 7 -207 -4 -108 -11 -204 -16 -213 -5 -10 -20 -18 -35 -18 -34 0 -1526 176
-2128 251 -894 111 -1595 208 -1984 274 -112 19 -221 35 -241 35 -76 0 -77
-19 -24 -369 99 -661 170 -950 268 -1098 60 -91 118 -135 204 -155 101 -23
435 -16 3112 63 416 13 764 20 774 16 18 -7 19 -19 12 -230 -5 -154 -10 -226
-19 -234 -9 -9 -490 -41 -1687 -113 -2419 -145 -2922 -177 -2953 -189 -41 -16
-53 -50 -34 -103 22 -62 401 -841 476 -978 83 -150 118 -203 191 -283 102
-111 213 -148 379 -128 47 6 718 121 1491 256 2011 351 2069 360 2086 343 12
-12 13 -48 4 -249 -6 -129 -15 -237 -19 -241 -4 -4 -432 -93 -951 -197 -838
-168 -2801 -566 -3063 -620 -125 -26 -137 -33 -137 -75 0 -58 145 -256 419
-574 271 -313 436 -475 561 -548 112 -67 194 -89 315 -88 161 2 160 2 1374
496 1098 446 1401 566 1421 561 10 -3 21 -12 24 -20 8 -21 -13 -476 -22 -485
-9 -9 -1460 -648 -1992 -877 -546 -235 -520 -222 -520 -271 0 -68 139 -141
615 -320 533 -202 958 -340 1046 -340 135 0 272 94 573 392 109 109 203 198
208 198 28 0 30 -54 14 -476 -54 -1415 -216 -3579 -315 -4202 -4 -29 -6 -64
-3 -78 6 -30 43 -61 91 -74 57 -15 400 -58 571 -71 198 -15 696 -6 880 15 370
44 449 61 477 102 18 28 17 44 -16 294 -76 580 -184 1938 -251 3150 -22 400
-50 1082 -50 1226 0 148 -4 149 237 -87 309 -303 433 -389 561 -389 94 0 457
116 1007 322 555 209 693 284 658 361 -14 31 -48 47 -523 251 -1016 437 -1975
865 -1986 886 -7 12 -14 115 -19 247 -8 267 -9 264 78 233 74 -25 383 -150
1332 -535 1261 -513 1250 -509 1420 -509 120 0 201 25 323 99 211 130 962 996
962 1111 0 52 137 22 -2980 650 -640 129 -1169 239 -1174 244 -6 6 -14 114
-19 241 -8 202 -7 233 6 246 19 19 -99 39 2854 -476 347 -61 670 -115 718
-121 218 -27 336 36 482 258 68 103 230 419 437 854 115 239 137 293 134 325
-2 29 -9 41 -29 50 -35 17 -180 26 -3379 218 -955 57 -1258 78 -1268 89 -10 9
-16 71 -22 227 -8 181 -7 216 5 228 16 16 -68 18 1500 -29 1160 -35 1794 -51
2075 -53 302 -2 351 5 433 60 46 32 127 150 157 230 53 140 127 492 195 931
59 385 59 412 -14 412 -21 0 -132 -16 -247 -35 -608 -103 -1808 -259 -3542
-461 -508 -59 -584 -66 -596 -54 -11 12 -16 63 -22 215 -6 172 -5 202 8 213 9
7 422 74 939 152 2133 324 2355 360 2467 395 152 48 209 107 261 270 43 131
79 432 111 913 13 187 9 219 -26 228 -15 4 -207 -46 -551 -144 -860 -246
-1558 -437 -2398 -656 -692 -180 -806 -208 -831 -202 -20 5 -23 14 -28 98 -14
226 -14 309 -1 321 7 7 210 66 451 131 771 207 1965 533 2089 571 231 70 359
153 422 272 54 103 68 206 84 612 12 309 4 470 -24 498 -19 19 -56 8 -177 -52
-366 -183 -1392 -602 -2474 -1011 -285 -108 -383 -141 -396 -134 -22 12 -28
66 -32 265 l-3 140 35 18 c19 10 343 144 720 298 1319 540 1377 565 1457 633
21 19 51 57 66 85 46 84 58 163 64 422 7 311 -16 559 -54 573 -21 8 -82 -20
-242 -113 -357 -206 -2011 -1081 -2044 -1081 -33 0 -39 28 -45 218 l-5 188
589 316 c735 395 787 424 875 489 129 96 172 171 184 324 8 98 -10 445 -30
577 -27 183 -61 203 -180 112 -399 -306 -693 -516 -1128 -807 -364 -243 -341
-240 -350 -50 -4 70 -7 150 -7 176 l0 48 228 169 c125 93 328 242 452 332 302
220 317 242 299 442 -14 164 -58 413 -82 476 -36 89 -39 88 -259 -122 -335
-318 -641 -584 -659 -572 -13 8 -11 89 7 296 33 378 20 619 -43 774 -37 94
-134 194 -186 194 -8 0 -32 -14 -53 -31z"/>
</g>
</svg>
